<svg xmlns="http://www.w3.org/2000/svg" xmlns:xlink="http://www.w3.org/1999/xlink" width="250" zoomAndPan="magnify" viewBox="0 0 187.5 54" height="72" preserveAspectRatio="xMidYMid meet" version="1.0"><defs><g/><clipPath id="id1"><path d="M 1.460938 0 L 185.550781 0 L 185.550781 53.019531 L 1.460938 53.019531 Z M 1.460938 0 " clip-rule="nonzero"/></clipPath><clipPath id="id2"><path d="M 1.460938 0 L 60.523438 0 L 60.523438 53.019531 L 1.460938 53.019531 Z M 1.460938 0 " clip-rule="nonzero"/></clipPath></defs><g clip-path="url(#id1)"><path fill="#ffffff" d="M 1.460938 0 L 186.039062 0 L 186.039062 60.542969 L 1.460938 60.542969 Z M 1.460938 0 " fill-opacity="1" fill-rule="nonzero"/><path fill="#2a2883" d="M 1.460938 0 L 186.039062 0 L 186.039062 53.160156 L 1.460938 53.160156 Z M 1.460938 0 " fill-opacity="1" fill-rule="nonzero"/><path fill="#ffffff" d="M 1.460938 0 L 186.039062 0 L 186.039062 53.160156 L 1.460938 53.160156 Z M 1.460938 0 " fill-opacity="1" fill-rule="nonzero"/><path fill="#2a2883" d="M 1.460938 0 L 186.039062 0 L 186.039062 53.160156 L 1.460938 53.160156 Z M 1.460938 0 " fill-opacity="1" fill-rule="nonzero"/></g><g fill="#fbfbfb" fill-opacity="1"><g transform="translate(61.418074, 32.117237)"><g><path d="M 12.015625 -9.320312 C 11.71875 -9.890625 11.203125 -10.761719 10.847656 -11.273438 L 10.089844 -10.945312 C 10.476562 -10.402344 10.960938 -9.546875 11.246094 -8.976562 Z M 4.765625 -8.304688 C 4.996094 -8.820312 5.167969 -9.332031 5.308594 -9.746094 C 5.410156 -10.046875 5.550781 -10.417969 5.679688 -10.746094 L 4.296875 -11.019531 C 4.265625 -10.605469 4.183594 -10.21875 4.082031 -9.875 C 3.925781 -9.332031 3.667969 -8.589844 3.28125 -7.878906 C 2.78125 -7.007812 1.769531 -5.550781 0.742188 -4.808594 L 1.871094 -4.140625 C 2.699219 -4.824219 3.667969 -6.121094 4.238281 -7.191406 L 7.90625 -7.191406 C 7.691406 -3.566406 6.152344 -1.699219 4.753906 -0.640625 C 4.4375 -0.386719 4.011719 -0.144531 3.597656 0.015625 L 4.808594 0.84375 C 7.265625 -0.726562 8.863281 -3.109375 9.089844 -7.191406 L 11.503906 -7.191406 C 11.832031 -7.191406 12.402344 -7.179688 12.84375 -7.148438 L 12.84375 -8.378906 C 12.429688 -8.320312 11.859375 -8.304688 11.503906 -8.304688 Z M 11.660156 -11.515625 C 12.074219 -10.988281 12.53125 -10.175781 12.84375 -9.5625 L 13.617188 -9.90625 C 13.34375 -10.433594 12.789062 -11.316406 12.417969 -11.84375 Z M 11.660156 -11.515625 "/></g></g></g><g fill="#fbfbfb" fill-opacity="1"><g transform="translate(75.688555, 32.117237)"><g><path d="M 1.457031 -4.78125 C 1.898438 -4.824219 2.65625 -4.851562 3.441406 -4.851562 L 11.273438 -4.851562 C 11.917969 -4.851562 12.515625 -4.796875 12.800781 -4.78125 L 12.800781 -6.179688 C 12.488281 -6.152344 11.972656 -6.109375 11.261719 -6.109375 L 3.441406 -6.109375 C 2.640625 -6.109375 1.882812 -6.152344 1.457031 -6.179688 Z M 1.457031 -4.78125 "/></g></g></g><g fill="#fbfbfb" fill-opacity="1"><g transform="translate(89.959036, 32.117237)"><g><path d="M 13.316406 -0.0585938 C 12.730469 -1.527344 11.175781 -4.394531 10.160156 -5.867188 L 9.089844 -5.378906 C 9.621094 -4.695312 10.246094 -3.582031 10.816406 -2.453125 C 9.261719 -2.253906 6.523438 -1.941406 4.425781 -1.742188 C 5.136719 -3.597656 6.535156 -7.976562 6.964844 -9.320312 C 7.148438 -9.917969 7.308594 -10.289062 7.449219 -10.648438 L 6.035156 -10.933594 C 5.980469 -10.5625 5.921875 -10.21875 5.75 -9.5625 C 5.351562 -8.164062 3.894531 -3.597656 3.097656 -1.628906 C 2.839844 -1.613281 2.597656 -1.597656 2.382812 -1.585938 C 1.96875 -1.570312 1.484375 -1.554688 1.054688 -1.570312 L 1.269531 -0.242188 C 1.683594 -0.300781 2.097656 -0.371094 2.453125 -0.398438 C 4.367188 -0.570312 9.132812 -1.097656 11.347656 -1.382812 C 11.660156 -0.683594 11.945312 -0.0273438 12.132812 0.484375 Z M 13.316406 -0.0585938 "/></g></g></g><g fill="#fbfbfb" fill-opacity="1"><g transform="translate(104.229516, 32.117237)"><g><path d="M 11.402344 -8.664062 C 11.160156 -8.621094 10.875 -8.589844 10.488281 -8.589844 L 7.09375 -8.589844 C 7.121094 -9.0625 7.148438 -9.546875 7.164062 -10.0625 C 7.179688 -10.402344 7.207031 -10.902344 7.25 -11.230469 L 5.910156 -11.230469 C 5.964844 -10.890625 6.007812 -10.363281 6.007812 -10.046875 C 6.007812 -9.535156 5.980469 -9.046875 5.953125 -8.589844 L 3.441406 -8.589844 C 2.898438 -8.589844 2.3125 -8.621094 1.8125 -8.675781 L 1.8125 -7.464844 C 2.3125 -7.519531 2.882812 -7.519531 3.453125 -7.519531 L 5.851562 -7.519531 C 5.464844 -4.582031 4.4375 -2.796875 3.027344 -1.511719 C 2.597656 -1.097656 2.011719 -0.699219 1.570312 -0.457031 L 2.597656 0.386719 C 4.980469 -1.257812 6.464844 -3.425781 6.980469 -7.519531 L 10.976562 -7.519531 C 10.976562 -5.996094 10.789062 -2.484375 10.246094 -1.398438 C 10.089844 -1.042969 9.832031 -0.925781 9.417969 -0.925781 C 8.820312 -0.925781 8.0625 -0.984375 7.292969 -1.085938 L 7.4375 0.101562 C 8.179688 0.144531 9.003906 0.183594 9.734375 0.183594 C 10.519531 0.183594 10.976562 -0.0703125 11.261719 -0.671875 C 11.902344 -2.039062 12.074219 -6.195312 12.132812 -7.5625 C 12.132812 -7.75 12.160156 -8.019531 12.203125 -8.261719 Z M 11.402344 -8.664062 "/></g></g></g><g fill="#fbfbfb" fill-opacity="1"><g transform="translate(118.499997, 32.117237)"><g><path d="M 11.347656 -11.144531 C 10.546875 -10.132812 9.046875 -8.890625 7.59375 -7.992188 C 6.023438 -7.007812 3.597656 -5.921875 1.214844 -5.367188 L 1.871094 -4.253906 C 3.738281 -4.808594 5.707031 -5.636719 7.234375 -6.480469 L 7.234375 -1.085938 C 7.234375 -0.542969 7.191406 0.171875 7.148438 0.441406 L 8.550781 0.441406 C 8.492188 0.15625 8.464844 -0.542969 8.464844 -1.085938 L 8.464844 -7.191406 C 9.933594 -8.121094 11.304688 -9.289062 12.289062 -10.289062 Z M 11.347656 -11.144531 "/></g></g></g><g fill="#fbfbfb" fill-opacity="1"><g transform="translate(132.770478, 32.117237)"><g><path d="M 10.21875 -10.648438 L 9.433594 -10.304688 C 9.90625 -9.660156 10.375 -8.820312 10.734375 -8.0625 L 11.546875 -8.433594 C 11.21875 -9.105469 10.574219 -10.132812 10.21875 -10.648438 Z M 12.089844 -11.332031 L 11.289062 -10.988281 C 11.761719 -10.347656 12.257812 -9.535156 12.644531 -8.777344 L 13.457031 -9.148438 C 13.101562 -9.804688 12.472656 -10.832031 12.089844 -11.332031 Z M 4.125 -10.859375 L 3.480469 -9.90625 C 4.308594 -9.417969 5.867188 -8.390625 6.550781 -7.863281 L 7.222656 -8.847656 C 6.609375 -9.289062 4.964844 -10.390625 4.125 -10.859375 Z M 1.984375 -0.65625 L 2.640625 0.5 C 3.96875 0.226562 5.9375 -0.429688 7.363281 -1.269531 C 9.648438 -2.613281 11.617188 -4.453125 12.859375 -6.367188 L 12.175781 -7.550781 C 11.019531 -5.539062 9.132812 -3.667969 6.765625 -2.3125 C 5.324219 -1.5 3.554688 -0.925781 1.984375 -0.65625 Z M 1.96875 -7.648438 L 1.328125 -6.679688 C 2.199219 -6.238281 3.738281 -5.238281 4.453125 -4.722656 L 5.109375 -5.722656 C 4.480469 -6.164062 2.8125 -7.191406 1.96875 -7.648438 Z M 1.96875 -7.648438 "/></g></g></g><g fill="#fbfbfb" fill-opacity="1"><g transform="translate(147.040959, 32.117237)"><g><path d="M 9.691406 -1.242188 C 9.890625 -2.554688 10.304688 -5.378906 10.417969 -6.351562 C 10.433594 -6.464844 10.476562 -6.652344 10.519531 -6.792969 L 9.648438 -7.207031 C 9.519531 -7.148438 9.164062 -7.105469 8.933594 -7.105469 L 4.59375 -7.105469 C 4.238281 -7.105469 3.8125 -7.148438 3.46875 -7.191406 L 3.46875 -5.996094 C 3.824219 -6.007812 4.195312 -6.035156 4.609375 -6.035156 L 9.148438 -6.035156 C 9.105469 -5.222656 8.691406 -2.441406 8.476562 -1.242188 L 3.3125 -1.242188 C 2.867188 -1.242188 2.46875 -1.269531 2.125 -1.296875 L 2.125 -0.113281 C 2.539062 -0.144531 2.867188 -0.15625 3.3125 -0.15625 L 11.132812 -0.15625 C 11.433594 -0.15625 11.960938 -0.144531 12.214844 -0.128906 L 12.214844 -1.285156 C 11.917969 -1.257812 11.402344 -1.242188 11.089844 -1.242188 Z M 9.691406 -1.242188 "/></g></g></g><g fill="#fbfbfb" fill-opacity="1"><g transform="translate(161.311439, 32.117237)"><g><path d="M 11.816406 -9.148438 C 11.632812 -9.078125 11.359375 -9.035156 10.832031 -9.035156 L 7.636719 -9.035156 L 7.636719 -10.363281 C 7.636719 -10.660156 7.648438 -10.988281 7.722656 -11.433594 L 6.351562 -11.433594 C 6.40625 -10.988281 6.421875 -10.660156 6.421875 -10.363281 L 6.421875 -9.035156 L 3.269531 -9.035156 C 2.769531 -9.035156 2.355469 -9.046875 1.941406 -9.089844 C 1.984375 -8.777344 1.984375 -8.292969 1.984375 -7.992188 L 1.984375 -5.480469 C 1.984375 -5.210938 1.96875 -4.824219 1.941406 -4.582031 L 3.183594 -4.582031 C 3.140625 -4.796875 3.125 -5.167969 3.125 -5.421875 L 3.125 -7.976562 L 11.101562 -7.976562 C 10.976562 -6.75 10.519531 -5.023438 9.746094 -3.8125 C 8.878906 -2.453125 7.308594 -1.398438 5.878906 -0.941406 C 5.421875 -0.769531 4.882812 -0.613281 4.394531 -0.542969 L 5.324219 0.527344 C 7.933594 -0.183594 9.90625 -1.640625 10.976562 -3.523438 C 11.773438 -4.882812 12.1875 -6.664062 12.375 -7.808594 C 12.429688 -8.078125 12.515625 -8.449219 12.585938 -8.664062 Z M 11.816406 -9.148438 "/></g></g></g><path fill="#fafafa" d="M 19.675781 10.359375 C 19.636719 10.484375 19.273438 11.296875 19.085938 11.675781 C 18.984375 11.878906 18.628906 12.085938 18.21875 12.171875 C 17.203125 12.394531 15.414062 13.671875 14.628906 14.742188 C 14.515625 14.894531 14.347656 15.109375 14.253906 15.222656 L 14.085938 15.421875 L 13.429688 15.425781 C 12.328125 15.425781 12.328125 15.425781 12.328125 16.695312 C 12.328125 17.921875 11.996094 17.785156 14.980469 17.785156 C 17.789062 17.785156 17.667969 17.769531 17.632812 18.179688 L 17.613281 18.40625 L 14.984375 18.4375 C 13.539062 18.453125 12.351562 18.472656 12.34375 18.480469 C 12.261719 18.554688 12.402344 19.078125 12.523438 19.15625 C 12.5625 19.183594 13.046875 19.203125 13.597656 19.203125 C 14.398438 19.203125 14.636719 19.222656 14.777344 19.296875 C 15.632812 19.753906 17.238281 19.859375 18.183594 19.527344 C 18.324219 19.476562 18.585938 19.421875 18.765625 19.40625 L 19.089844 19.375 L 19.5625 20.035156 C 19.824219 20.398438 20.132812 20.839844 20.253906 21.019531 C 20.375 21.195312 20.511719 21.390625 20.5625 21.445312 C 20.695312 21.589844 20.679688 21.765625 20.507812 22.085938 C 20.425781 22.238281 20.359375 22.40625 20.359375 22.464844 C 20.359375 22.519531 20.335938 22.578125 20.308594 22.59375 C 20.234375 22.644531 19.957031 23.714844 19.890625 24.21875 C 19.824219 24.738281 19.808594 24.753906 19.234375 24.753906 C 18.679688 24.757812 18.648438 24.789062 18.648438 25.316406 C 18.648438 25.84375 18.683594 25.878906 19.214844 25.878906 C 19.699219 25.878906 19.738281 25.90625 19.792969 26.300781 C 19.851562 26.691406 19.761719 26.765625 19.210938 26.765625 C 18.667969 26.765625 18.636719 26.800781 18.660156 27.363281 L 18.675781 27.796875 L 19.246094 27.816406 C 19.929688 27.835938 20.03125 27.90625 20.125 28.453125 C 20.203125 28.878906 20.390625 29.53125 20.542969 29.90625 C 20.605469 30.058594 20.65625 30.230469 20.65625 30.289062 C 20.660156 30.347656 20.710938 30.503906 20.773438 30.632812 C 20.835938 30.761719 20.890625 30.890625 20.890625 30.917969 C 20.890625 30.945312 20.953125 31.101562 21.03125 31.273438 C 21.105469 31.441406 21.230469 31.722656 21.308594 31.902344 C 21.382812 32.082031 21.476562 32.269531 21.511719 32.316406 C 21.546875 32.367188 21.679688 32.605469 21.804688 32.847656 C 21.925781 33.09375 22.105469 33.40625 22.199219 33.546875 C 22.292969 33.683594 22.367188 33.820312 22.367188 33.84375 C 22.367188 33.882812 22.839844 34.566406 23.0625 34.839844 C 23.117188 34.914062 23.210938 35.03125 23.265625 35.105469 C 23.320312 35.179688 23.507812 35.414062 23.679688 35.625 C 23.847656 35.835938 24.015625 36.042969 24.050781 36.085938 C 24.582031 36.765625 26.765625 38.636719 27.03125 38.636719 C 27.066406 38.636719 27.09375 38.664062 27.09375 38.699219 C 27.09375 38.730469 27.207031 38.8125 27.34375 38.875 C 27.484375 38.941406 27.703125 39.058594 27.832031 39.136719 C 27.960938 39.214844 28.109375 39.296875 28.15625 39.316406 C 28.207031 39.335938 28.351562 39.402344 28.484375 39.46875 C 28.617188 39.53125 28.800781 39.605469 28.898438 39.632812 L 29.074219 39.679688 L 29.089844 40.820312 C 29.105469 42.15625 29.09375 42.121094 29.628906 42.121094 C 30.171875 42.121094 30.164062 42.136719 30.164062 41.074219 C 30.164062 40.019531 30.167969 40.011719 30.757812 40.097656 L 31.082031 40.144531 L 31.097656 41.054688 C 31.117188 42.121094 31.117188 42.121094 31.609375 42.121094 C 32.171875 42.121094 32.167969 42.125 32.1875 41.0625 L 32.203125 40.148438 L 32.558594 40.015625 C 32.753906 39.945312 32.960938 39.882812 33.019531 39.882812 C 33.167969 39.875 33.746094 39.59375 34.03125 39.390625 C 34.164062 39.300781 34.335938 39.179688 34.414062 39.121094 C 34.714844 38.914062 35.351562 38.210938 35.5625 37.855469 C 35.683594 37.652344 35.828125 37.425781 35.890625 37.351562 L 36 37.21875 L 42.746094 37.203125 L 49.492188 37.191406 L 49.632812 37.011719 C 49.859375 36.730469 49.691406 36.097656 49.390625 36.097656 C 49.289062 36.097656 49.066406 35.734375 49.066406 35.570312 C 49.066406 35.40625 48.914062 35.039062 48.785156 34.898438 C 48.6875 34.792969 48.667969 34.804688 48.207031 35.304688 L 47.730469 35.820312 L 47.421875 35.746094 C 47.074219 35.660156 46.941406 35.484375 46.820312 34.933594 C 46.679688 34.308594 46.5 34.246094 46.113281 34.691406 C 45.554688 35.332031 45.472656 35.394531 45.234375 35.355469 C 44.902344 35.300781 44.886719 35.289062 44.839844 35.082031 C 44.816406 34.972656 44.753906 34.792969 44.695312 34.679688 C 44.636719 34.566406 44.574219 34.359375 44.550781 34.21875 C 44.476562 33.789062 44.296875 33.78125 43.914062 34.1875 C 43.183594 34.964844 43.226562 34.933594 43 34.894531 C 42.726562 34.851562 42.640625 34.769531 42.59375 34.511719 C 42.570312 34.390625 42.523438 34.230469 42.492188 34.148438 C 42.457031 34.066406 42.386719 33.867188 42.335938 33.703125 C 42.214844 33.328125 42.058594 33.285156 41.820312 33.566406 C 40.878906 34.652344 40.492188 34.75 40.351562 33.925781 C 40.316406 33.71875 40.128906 33.164062 40.03125 32.964844 C 39.96875 32.847656 39.789062 32.882812 39.65625 33.042969 C 39.597656 33.113281 39.398438 33.339844 39.21875 33.542969 C 39.039062 33.746094 38.859375 33.953125 38.820312 34.003906 C 38.597656 34.3125 38.300781 34 38.109375 33.257812 C 38.054688 33.046875 37.988281 32.851562 37.964844 32.820312 C 37.9375 32.785156 37.898438 32.671875 37.875 32.566406 C 37.8125 32.269531 37.679688 32.324219 37.1875 32.855469 C 36.660156 33.421875 36.632812 33.417969 36.578125 32.777344 C 36.535156 32.246094 36.277344 30.699219 36.21875 30.605469 C 36.199219 30.574219 36.148438 30.367188 36.101562 30.148438 C 36.015625 29.71875 35.609375 28.503906 35.457031 28.210938 C 35.40625 28.113281 35.363281 28.003906 35.363281 27.964844 C 35.363281 27.902344 35.125 27.378906 35.003906 27.179688 C 34.972656 27.128906 34.921875 27.023438 34.890625 26.941406 C 34.859375 26.859375 34.804688 26.753906 34.773438 26.707031 C 34.742188 26.65625 34.660156 26.523438 34.59375 26.410156 C 34.332031 25.960938 34.199219 25.746094 33.960938 25.363281 C 33.820312 25.144531 33.675781 24.910156 33.632812 24.847656 C 33.59375 24.78125 33.457031 24.59375 33.324219 24.425781 C 33.195312 24.257812 33.035156 24.046875 32.972656 23.957031 C 32.90625 23.867188 32.824219 23.761719 32.789062 23.726562 C 32.753906 23.691406 32.566406 23.476562 32.371094 23.25 C 31.746094 22.527344 31.078125 21.894531 30.230469 21.21875 C 30.023438 21.050781 29.832031 20.917969 29.808594 20.917969 C 29.78125 20.917969 29.726562 20.882812 29.683594 20.839844 C 29.5625 20.726562 28.878906 20.308594 28.453125 20.09375 C 27.8125 19.765625 27.75 19.742188 27.3125 19.597656 C 25.988281 19.164062 26.085938 19.179688 24.875 19.175781 C 23.597656 19.175781 23.667969 19.195312 23.328125 18.675781 C 23.210938 18.496094 23.058594 18.277344 22.992188 18.191406 C 22.925781 18.109375 22.832031 17.976562 22.78125 17.90625 C 22.734375 17.832031 22.632812 17.695312 22.558594 17.601562 C 22.355469 17.355469 22.289062 17.082031 22.402344 16.933594 C 22.449219 16.867188 22.546875 16.726562 22.613281 16.621094 C 22.679688 16.515625 22.757812 16.429688 22.78125 16.429688 C 22.808594 16.429688 22.863281 16.335938 22.898438 16.222656 C 22.9375 16.105469 22.988281 16.015625 23.011719 16.015625 C 23.101562 16.015625 23.371094 15.304688 23.488281 14.765625 L 23.613281 14.199219 L 23.492188 13.695312 C 23.257812 12.683594 22.628906 12.101562 21.5 11.851562 C 20.960938 11.730469 20.847656 11.628906 20.269531 10.757812 C 19.945312 10.265625 19.746094 10.132812 19.675781 10.359375 M 19.117188 12.617188 C 19.277344 12.699219 19.484375 12.859375 19.574219 12.972656 C 19.78125 13.230469 19.855469 13.230469 20.097656 12.980469 C 20.871094 12.183594 21.992188 12.355469 22.46875 13.347656 C 22.796875 14.019531 22.398438 15.074219 21.765625 15.21875 C 21.675781 15.238281 21.585938 15.28125 21.566406 15.308594 C 21.4375 15.519531 20.539062 15.253906 20.140625 14.886719 C 19.832031 14.601562 19.804688 14.601562 19.542969 14.890625 C 19.191406 15.273438 18.375 15.488281 18.089844 15.273438 C 18.027344 15.226562 17.929688 15.1875 17.878906 15.1875 C 17.335938 15.1875 16.882812 13.757812 17.25 13.21875 C 17.71875 12.535156 18.476562 12.292969 19.117188 12.617188 M 17.871094 13.21875 C 17.609375 13.289062 17.632812 13.839844 17.902344 13.980469 C 18.230469 14.148438 18.59375 13.863281 18.503906 13.503906 C 18.433594 13.226562 18.214844 13.128906 17.871094 13.21875 M 20.5 13.222656 C 20.414062 13.28125 20.332031 13.53125 20.355469 13.679688 C 20.417969 14.164062 21.1875 14.113281 21.1875 13.621094 C 21.1875 13.28125 20.777344 13.042969 20.5 13.222656 M 13.21875 15.957031 C 13.382812 16.046875 13.371094 16.332031 13.199219 16.410156 C 12.992188 16.503906 12.742188 16.390625 12.742188 16.207031 C 12.742188 15.960938 12.984375 15.832031 13.21875 15.957031 M 14.164062 15.957031 C 14.316406 16.039062 14.3125 16.316406 14.15625 16.414062 C 13.878906 16.589844 13.519531 16.164062 13.78125 15.972656 C 13.90625 15.878906 14.011719 15.875 14.164062 15.957031 M 17.546875 24.875 C 17.125 25.042969 17.3125 25.777344 17.796875 25.851562 C 18.140625 25.90625 18.234375 25.796875 18.234375 25.324219 C 18.234375 24.832031 18.011719 24.6875 17.546875 24.875 M 17.605469 26.847656 C 17.117188 27.0625 17.277344 27.828125 17.808594 27.828125 C 18.175781 27.828125 18.234375 27.761719 18.234375 27.324219 C 18.234375 26.800781 18.046875 26.65625 17.605469 26.847656 M 29.15625 42.636719 C 29.09375 42.800781 29.121094 43.089844 29.214844 43.234375 C 29.28125 43.339844 29.738281 43.390625 29.941406 43.3125 C 30.125 43.238281 30.226562 42.820312 30.109375 42.601562 C 29.996094 42.386719 29.238281 42.414062 29.15625 42.636719 M 31.164062 42.601562 C 30.96875 42.96875 31.171875 43.3125 31.59375 43.347656 C 32.070312 43.382812 32.328125 43.023438 32.113281 42.621094 C 32.003906 42.414062 31.273438 42.398438 31.164062 42.601562 " fill-opacity="1" fill-rule="evenodd"/><g clip-path="url(#id2)"><path fill="#2a2883" d="M 1.460938 26.765625 L 1.460938 56.296875 L 60.523438 56.296875 L 60.523438 -2.769531 L 1.460938 -2.769531 L 1.460938 26.765625 M 19.953125 10.359375 C 20.03125 10.433594 20.171875 10.613281 20.269531 10.757812 C 20.847656 11.628906 20.960938 11.730469 21.5 11.851562 C 22.628906 12.101562 23.257812 12.683594 23.492188 13.695312 L 23.613281 14.199219 L 23.488281 14.765625 C 23.371094 15.304688 23.101562 16.015625 23.011719 16.015625 C 22.988281 16.015625 22.9375 16.105469 22.898438 16.222656 C 22.863281 16.335938 22.808594 16.429688 22.78125 16.429688 C 22.757812 16.429688 22.679688 16.515625 22.613281 16.621094 C 22.546875 16.726562 22.449219 16.867188 22.402344 16.933594 C 22.289062 17.082031 22.355469 17.355469 22.558594 17.601562 C 22.632812 17.695312 22.734375 17.832031 22.78125 17.90625 C 22.832031 17.976562 22.925781 18.109375 22.992188 18.191406 C 23.058594 18.277344 23.210938 18.496094 23.328125 18.675781 C 23.667969 19.195312 23.597656 19.175781 24.875 19.175781 C 26.085938 19.179688 25.988281 19.164062 27.3125 19.597656 C 27.75 19.742188 27.8125 19.765625 28.453125 20.09375 C 28.878906 20.308594 29.5625 20.726562 29.683594 20.839844 C 29.726562 20.882812 29.78125 20.917969 29.808594 20.917969 C 29.832031 20.917969 30.023438 21.050781 30.230469 21.21875 C 31.078125 21.894531 31.746094 22.527344 32.371094 23.25 C 32.566406 23.476562 32.753906 23.691406 32.789062 23.726562 C 32.824219 23.761719 32.90625 23.867188 32.972656 23.957031 C 33.035156 24.046875 33.195312 24.257812 33.324219 24.425781 C 33.457031 24.59375 33.59375 24.78125 33.632812 24.847656 C 33.675781 24.910156 33.820312 25.144531 33.960938 25.363281 C 34.199219 25.746094 34.332031 25.960938 34.59375 26.410156 C 34.660156 26.523438 34.742188 26.65625 34.773438 26.707031 C 34.804688 26.753906 34.859375 26.859375 34.890625 26.941406 C 34.921875 27.023438 34.972656 27.128906 35.003906 27.179688 C 35.125 27.378906 35.363281 27.902344 35.363281 27.964844 C 35.363281 28.003906 35.40625 28.113281 35.457031 28.210938 C 35.609375 28.503906 36.015625 29.71875 36.101562 30.148438 C 36.148438 30.367188 36.199219 30.574219 36.21875 30.605469 C 36.277344 30.699219 36.535156 32.246094 36.578125 32.777344 C 36.632812 33.417969 36.660156 33.421875 37.1875 32.855469 C 37.679688 32.324219 37.8125 32.269531 37.875 32.566406 C 37.898438 32.671875 37.9375 32.785156 37.964844 32.820312 C 37.988281 32.851562 38.054688 33.046875 38.109375 33.257812 C 38.300781 34 38.597656 34.3125 38.820312 34.003906 C 38.859375 33.953125 39.039062 33.746094 39.21875 33.542969 C 39.398438 33.339844 39.597656 33.113281 39.65625 33.042969 C 39.789062 32.882812 39.96875 32.847656 40.03125 32.964844 C 40.128906 33.164062 40.316406 33.71875 40.351562 33.925781 C 40.492188 34.75 40.878906 34.652344 41.820312 33.566406 C 42.058594 33.285156 42.214844 33.328125 42.335938 33.703125 C 42.386719 33.867188 42.457031 34.066406 42.492188 34.148438 C 42.523438 34.230469 42.570312 34.390625 42.59375 34.511719 C 42.640625 34.769531 42.726562 34.851562 43 34.894531 C 43.226562 34.933594 43.183594 34.964844 43.914062 34.1875 C 44.296875 33.78125 44.476562 33.789062 44.550781 34.21875 C 44.574219 34.359375 44.636719 34.566406 44.695312 34.679688 C 44.753906 34.792969 44.816406 34.972656 44.839844 35.082031 C 44.886719 35.289062 44.902344 35.300781 45.234375 35.355469 C 45.472656 35.394531 45.554688 35.332031 46.113281 34.691406 C 46.5 34.246094 46.679688 34.308594 46.820312 34.933594 C 46.941406 35.484375 47.074219 35.660156 47.421875 35.746094 L 47.730469 35.820312 L 48.207031 35.304688 C 48.667969 34.804688 48.6875 34.792969 48.785156 34.898438 C 48.914062 35.039062 49.066406 35.40625 49.066406 35.570312 C 49.066406 35.734375 49.289062 36.097656 49.390625 36.097656 C 49.691406 36.097656 49.859375 36.730469 49.632812 37.011719 L 49.492188 37.191406 L 42.746094 37.203125 L 36 37.21875 L 35.890625 37.351562 C 35.828125 37.425781 35.683594 37.652344 35.5625 37.855469 C 35.351562 38.210938 34.714844 38.914062 34.414062 39.121094 C 34.335938 39.179688 34.164062 39.300781 34.03125 39.390625 C 33.746094 39.59375 33.167969 39.875 33.019531 39.882812 C 32.960938 39.882812 32.753906 39.945312 32.558594 40.015625 L 32.203125 40.148438 L 32.1875 41.0625 C 32.167969 42.125 32.171875 42.121094 31.609375 42.121094 C 31.117188 42.121094 31.117188 42.121094 31.097656 41.054688 L 31.082031 40.144531 L 30.757812 40.097656 C 30.167969 40.011719 30.164062 40.019531 30.164062 41.074219 C 30.164062 42.136719 30.171875 42.121094 29.628906 42.121094 C 29.09375 42.121094 29.105469 42.15625 29.089844 40.820312 L 29.074219 39.679688 L 28.898438 39.632812 C 28.800781 39.605469 28.617188 39.53125 28.484375 39.46875 C 28.351562 39.402344 28.207031 39.335938 28.15625 39.316406 C 28.109375 39.296875 27.960938 39.214844 27.832031 39.136719 C 27.703125 39.058594 27.484375 38.941406 27.34375 38.875 C 27.207031 38.8125 27.09375 38.730469 27.09375 38.699219 C 27.09375 38.664062 27.066406 38.636719 27.03125 38.636719 C 26.765625 38.636719 24.582031 36.765625 24.050781 36.085938 C 24.015625 36.042969 23.847656 35.835938 23.679688 35.625 C 23.507812 35.414062 23.320312 35.179688 23.265625 35.105469 C 23.210938 35.03125 23.117188 34.914062 23.0625 34.839844 C 22.839844 34.566406 22.367188 33.882812 22.367188 33.84375 C 22.367188 33.820312 22.292969 33.683594 22.199219 33.546875 C 22.105469 33.40625 21.925781 33.09375 21.804688 32.847656 C 21.679688 32.605469 21.546875 32.367188 21.511719 32.316406 C 21.476562 32.269531 21.382812 32.082031 21.308594 31.902344 C 21.230469 31.722656 21.105469 31.441406 21.03125 31.273438 C 20.953125 31.101562 20.890625 30.945312 20.890625 30.917969 C 20.890625 30.890625 20.835938 30.761719 20.773438 30.632812 C 20.710938 30.503906 20.660156 30.347656 20.65625 30.289062 C 20.65625 30.230469 20.605469 30.058594 20.542969 29.90625 C 20.390625 29.53125 20.203125 28.878906 20.125 28.453125 C 20.03125 27.90625 19.929688 27.835938 19.246094 27.816406 L 18.675781 27.796875 L 18.660156 27.363281 C 18.636719 26.800781 18.667969 26.765625 19.210938 26.765625 C 19.761719 26.765625 19.851562 26.691406 19.792969 26.300781 C 19.738281 25.90625 19.699219 25.878906 19.214844 25.878906 C 18.683594 25.878906 18.648438 25.84375 18.648438 25.316406 C 18.648438 24.789062 18.679688 24.757812 19.234375 24.753906 C 19.808594 24.753906 19.824219 24.738281 19.890625 24.21875 C 19.957031 23.714844 20.234375 22.644531 20.308594 22.59375 C 20.335938 22.578125 20.359375 22.519531 20.359375 22.464844 C 20.359375 22.40625 20.425781 22.238281 20.507812 22.085938 C 20.679688 21.765625 20.695312 21.589844 20.5625 21.445312 C 20.511719 21.390625 20.375 21.195312 20.253906 21.019531 C 20.132812 20.839844 19.824219 20.398438 19.5625 20.035156 L 19.089844 19.375 L 18.765625 19.40625 C 18.585938 19.421875 18.324219 19.476562 18.183594 19.527344 C 17.238281 19.859375 15.632812 19.753906 14.777344 19.296875 C 14.636719 19.222656 14.398438 19.203125 13.597656 19.203125 C 13.046875 19.203125 12.5625 19.183594 12.523438 19.15625 C 12.402344 19.078125 12.261719 18.554688 12.34375 18.480469 C 12.351562 18.472656 13.539062 18.453125 14.984375 18.4375 L 17.613281 18.40625 L 17.632812 18.179688 C 17.667969 17.769531 17.789062 17.785156 14.980469 17.785156 C 11.996094 17.785156 12.328125 17.921875 12.328125 16.695312 C 12.328125 15.425781 12.328125 15.425781 13.429688 15.425781 L 14.085938 15.421875 L 14.253906 15.222656 C 14.347656 15.109375 14.515625 14.894531 14.628906 14.742188 C 15.414062 13.671875 17.203125 12.394531 18.21875 12.171875 C 18.628906 12.085938 18.984375 11.878906 19.085938 11.675781 C 19.273438 11.296875 19.636719 10.484375 19.675781 10.359375 C 19.730469 10.191406 19.777344 10.191406 19.953125 10.359375 M 17.910156 12.632812 C 17.390625 12.898438 17.175781 13.207031 17.132812 13.75 C 17.078125 14.40625 17.480469 15.1875 17.878906 15.1875 C 17.929688 15.1875 18.027344 15.226562 18.089844 15.273438 C 18.375 15.488281 19.191406 15.273438 19.542969 14.890625 C 19.804688 14.601562 19.832031 14.601562 20.140625 14.886719 C 20.539062 15.253906 21.4375 15.519531 21.566406 15.308594 C 21.585938 15.28125 21.675781 15.238281 21.765625 15.21875 C 22.398438 15.074219 22.796875 14.019531 22.46875 13.347656 C 21.992188 12.355469 20.871094 12.183594 20.097656 12.980469 C 19.855469 13.230469 19.78125 13.230469 19.574219 12.972656 C 19.183594 12.480469 18.480469 12.339844 17.910156 12.632812 M 18.378906 13.273438 C 18.734375 13.628906 18.347656 14.207031 17.902344 13.980469 C 17.632812 13.839844 17.609375 13.289062 17.871094 13.21875 C 18.082031 13.164062 18.289062 13.183594 18.378906 13.273438 M 21.070312 13.296875 C 21.265625 13.492188 21.230469 13.804688 20.996094 13.949219 C 20.613281 14.179688 20.242188 13.855469 20.386719 13.414062 C 20.476562 13.148438 20.855469 13.082031 21.070312 13.296875 M 12.84375 15.976562 C 12.679688 16.105469 12.710938 16.347656 12.902344 16.414062 C 13.140625 16.496094 13.332031 16.394531 13.332031 16.183594 C 13.332031 15.933594 13.058594 15.816406 12.84375 15.976562 M 13.78125 15.972656 C 13.519531 16.164062 13.878906 16.589844 14.15625 16.414062 C 14.3125 16.316406 14.316406 16.039062 14.164062 15.957031 C 14.011719 15.875 13.90625 15.878906 13.78125 15.972656 M 18.164062 24.886719 C 18.273438 24.996094 18.253906 25.671875 18.136719 25.792969 C 17.792969 26.132812 17.191406 25.589844 17.363281 25.097656 C 17.449219 24.84375 17.980469 24.703125 18.164062 24.886719 M 18.125 26.863281 C 18.253906 26.976562 18.28125 27.636719 18.164062 27.757812 C 17.867188 28.050781 17.335938 27.730469 17.335938 27.261719 C 17.335938 26.867188 17.847656 26.609375 18.125 26.863281 M 30.109375 42.601562 C 30.226562 42.820312 30.125 43.238281 29.941406 43.3125 C 29.738281 43.390625 29.28125 43.339844 29.214844 43.234375 C 29.121094 43.089844 29.09375 42.800781 29.15625 42.636719 C 29.238281 42.414062 29.996094 42.386719 30.109375 42.601562 M 32.113281 42.621094 C 32.328125 43.023438 32.070312 43.382812 31.59375 43.347656 C 31.171875 43.3125 30.96875 42.96875 31.164062 42.601562 C 31.273438 42.398438 32.003906 42.414062 32.113281 42.621094 " fill-opacity="1" fill-rule="evenodd"/></g></svg>